# xmcd CD database file
#
# Track frame offsets:
#	150
#	15005
#	35367
#	48185
#	65516
#	78675
#	98502
#	134548
#	148795
#	163934
#	178993
#	189619
#	220586
#	233198
#	246642
#	258837
#	272747
#	292920
#	303901
#	315320
#
# Disc length: 4422 seconds
#
# Revision: 1
# Processed by: cddbd v1.5.2PL0 Copyright (c) Steve Scherf et al.
# Submitted via: CDex 1.70beta2
#
DISCID=19114414
DTITLE=Lou Rawls - Best Of
DYEAR=2006
DGENRE=Soul
TTITLE0=Motherless Child
TTITLE1=God Bless The Child
TTITLE2=Nobody But Me
TTITLE3=Blues for the Weepers
TTITLE4=Goin' To Chicago Blues
TTITLE5=How Long, How Long Blues
TTITLE6=Southside Blues (Tabacco Road medley)
TTITLE7=Something Stirring in My Soul
TTITLE8=Georgia on My Mind
TTITLE9=So Hard To Laugh, So Easy To Cry
TTITLE10=Old Folks
TTITLE11=Somebody Have Mercy
TTITLE12=Why (Do I Love You So)
TTITLE13=Street of Dreams
TTITLE14=I Wonder
TTITLE15=Let's Burn Down the Cornfield
TTITLE16=One for My Baby, One More for the Road
TTITLE17=Mean Old World
TTITLE18=Long Gone Blues
TTITLE19=Fine and Mellow
EXTD=YEAR: 2006
EXTT0=
EXTT1=
EXTT2=
EXTT3=
EXTT4=
EXTT5=
EXTT6=
EXTT7=
EXTT8=
EXTT9=
EXTT10=
EXTT11=
EXTT12=
EXTT13=
EXTT14=
EXTT15=
EXTT16=
EXTT17=
EXTT18=
EXTT19=
PLAYORDER=
